<svg width="156" height="26" viewBox="0 0 156 26" fill="none" xmlns="http://www.w3.org/2000/svg">
<path d="M54.7993 -2.9101e-05L50.6436 4.01917L53.0653 6.36455L57.221 2.34535L54.7993 -2.9101e-05Z" fill="#EA0029"/>
<path d="M42.6807 14.2552L54.8162 26L57.2378 23.6564L46.2306 13.0035L48.7209 10.5933L46.2856 8.24963L42.667 11.7518C41.9515 12.4442 41.9515 13.5628 42.667 14.2552H42.6807Z" fill="#EA0029"/>
<path d="M42.144 23.6564L44.5656 26L48.7346 21.9919L46.313 19.6483L42.144 23.6564Z" fill="#FFB71B"/>
<path d="M53.1375 13.0035L50.6471 15.4137L53.0687 17.7707L56.6873 14.2685C57.4028 13.5761 57.4028 12.4575 56.6873 11.7651L44.5656 0.00695801L42.144 2.3506L53.1513 13.0035H53.1375Z" fill="#FFB71B"/>
<path d="M107.059 11.0593C104.569 10.4867 103.055 10.0473 103.055 8.56917C103.055 7.22424 104.775 6.5318 106.509 6.5318C107.774 6.5318 109.426 6.8647 110.925 8.31616C111.09 8.48927 111.2 8.60911 111.2 8.60911L113.319 6.98455C113.416 6.90465 113.471 6.79812 113.484 6.67828C113.484 6.55843 113.457 6.43859 113.374 6.35869C112.356 5.3733 109.536 3.65552 106.687 3.65552C101.665 3.65552 99.6016 6.33206 99.6016 8.56917C99.6016 12.4575 103.234 13.2564 106.151 13.8823L106.509 13.9622C109.921 14.7079 110.898 15.3338 110.898 16.7586C110.898 18.9557 108.641 19.2753 107.293 19.2753C104.527 19.2753 103.096 18.2766 102.271 17.2246C102.119 17.0382 102.009 16.8784 102.009 16.8784L99.7942 18.503C99.6979 18.5696 99.6428 18.6761 99.6153 18.7959C99.6016 18.9158 99.6291 19.0223 99.6979 19.1155C101.349 21.2062 104.115 22.1516 107.114 22.1516C111.696 22.1516 114.337 20.1542 114.337 16.6654C114.337 12.6838 110.953 11.9115 107.045 11.0326L107.059 11.0593Z" fill="#00205C"/>
<path d="M147.689 3.68219C141.938 3.68219 139.379 6.53184 139.379 12.9369C139.379 19.3419 141.938 22.1783 147.689 22.1783C153.441 22.1783 156 19.3286 156 12.9369C156 6.54516 153.441 3.68219 147.689 3.68219ZM147.689 19.3153C145.185 19.3153 142.86 18.543 142.86 12.9502C142.86 7.35744 145.185 6.55847 147.689 6.55847C150.194 6.55847 152.519 7.33081 152.519 12.9502C152.519 18.5696 150.194 19.3153 147.689 19.3153Z" fill="#00205C"/>
<path d="M79.4995 8.99527C79.4995 5.50645 77.0916 3.66882 72.5374 3.66882C69.648 3.66882 67.6667 4.38789 65.6716 5.91925C65.479 6.06573 65.4515 6.33205 65.6028 6.51847L67.0613 8.28952C67.1301 8.36941 67.3365 8.62242 67.3365 8.62242C67.3365 8.62242 67.5979 8.42268 67.6805 8.3561C69.3591 7.06443 70.5011 6.53179 72.3585 6.53179C74.7939 6.53179 76.0322 7.35739 76.0322 8.98196V9.74097C76.0322 9.74097 74.3261 10.0739 71.2441 10.8196C65.7267 12.1645 64.0894 14.1752 64.0894 16.7453C64.0894 19.6482 66.3321 22.085 70.7625 22.085C73.0465 22.085 74.8489 21.4458 76.5138 21.033L76.6101 21.9119H79.0317C79.1555 21.9119 79.2793 21.8586 79.3619 21.7654C79.4444 21.6722 79.4857 21.5524 79.472 21.4325V8.99527H79.4995ZM76.101 12.7371V18.3299C76.101 18.3299 74.615 18.7427 73.6932 18.969C72.9915 19.1422 72.1246 19.3419 71.0789 19.3419C68.3271 19.3419 67.5566 17.9837 67.5566 16.9184C67.5566 15.6533 68.0932 14.6679 72.0146 13.7491C74.3536 13.2032 75.4818 12.8969 76.101 12.7504V12.7371Z" fill="#00205C"/>
<path d="M96.451 3.90852H93.4653V18.3032C93.4653 18.3032 92.2407 18.6894 90.9336 19.0356C90.4795 19.1555 89.9567 19.2221 89.3651 19.2221C86.0491 19.2221 85.6639 17.6108 85.6639 16.4124V3.90852H82.6782C82.4305 3.90852 82.2241 4.10826 82.2241 4.34795V16.7453C82.2241 20.1542 84.5769 22.1117 88.6909 22.1117C89.6402 22.1117 90.452 21.9785 91.1537 21.7921C92.3783 21.4858 93.8505 21.073 93.8505 21.073L93.9468 21.9652H96.4235C96.6711 21.9652 96.8775 21.7654 96.8775 21.5391V4.33463C96.8775 4.09494 96.6711 3.8952 96.4235 3.8952L96.451 3.90852Z" fill="#00205C"/>
<path d="M125.028 18.4764C123.955 18.9824 123.033 19.2088 122.029 19.2088C120.708 19.2088 120.46 18.796 120.46 18.0503V6.71825H125.359V4.33466C125.359 4.09497 125.152 3.89523 124.905 3.89523H120.337L119.91 0.12677L117.42 0.659415C117.213 0.699363 117.076 0.885789 117.076 1.08553V18.4764C117.076 20.7668 118.727 22.0851 121.589 22.0851C123.35 22.0851 124.726 21.5524 125.675 21.1529V18.8492C125.675 18.5296 125.331 18.3299 125.028 18.4631V18.4764Z" fill="#00205C"/>
<path d="M139.09 4.32135C138.691 3.96182 137.728 3.6955 136.765 3.6955C134.206 3.6955 132.513 4.60099 131.564 5.6796L131.358 3.89524H128.867C128.619 3.89524 128.413 4.09498 128.413 4.33467V21.5125C128.413 21.7522 128.619 21.9386 128.867 21.9386H131.839V10.4734C131.853 8.20966 133.614 6.74489 136.325 6.74489C136.765 6.74489 137.15 6.82478 137.494 6.93131C137.494 6.93131 137.549 6.86473 137.632 6.7582L139.131 4.92058C139.283 4.74747 139.255 4.49446 139.09 4.33467V4.32135Z" fill="#00205C"/>
<path d="M31.9348 11.2191C33.4895 11.2191 35.2782 10.793 35.2782 7.5039C35.2782 4.21482 33.4895 3.77539 31.9348 3.77539C30.38 3.77539 28.5913 4.20151 28.5913 7.5039C28.5913 10.8063 30.38 11.2191 31.9348 11.2191ZM29.981 7.5039C29.981 5.24016 30.9166 4.93389 31.9348 4.93389C32.9529 4.93389 33.8885 5.24016 33.8885 7.5039C33.8885 9.76764 32.9529 10.0739 31.9348 10.0739C30.9166 10.0739 29.981 9.76764 29.981 7.5039Z" fill="#00205C"/>
<path d="M21.6841 7.47724C21.6841 4.9605 22.716 3.73541 24.8211 3.73541C26.1695 3.73541 27.0088 4.16153 27.7105 5.18687C27.7656 5.25345 27.7518 5.35998 27.683 5.41324L27.0088 5.91926L26.8575 6.02579L26.7474 5.89262L26.7061 5.83936C26.3897 5.42656 26.087 4.89392 24.7661 4.89392C24.257 4.89392 23.8993 5.01376 23.6379 5.26677C23.2526 5.65293 23.06 6.35869 23.0737 7.43729V7.53051C23.0737 8.60911 23.2389 9.32818 23.6379 9.70104C23.8993 9.95404 24.257 10.0739 24.7661 10.0739C26.087 10.0739 26.3897 9.52793 26.7061 9.12844L26.7474 9.07518L26.8575 8.94202C26.8575 8.94202 26.9676 9.02191 27.0088 9.04854L27.683 9.55456C27.683 9.55456 27.7656 9.71435 27.7105 9.78093C27.0088 10.8063 26.1695 11.2324 24.8211 11.2324C22.7023 11.2324 21.6841 10.0073 21.6841 7.49056V7.47724Z" fill="#00205C"/>
<path d="M13.3464 5.90592C13.3464 4.50773 12.3833 3.76202 10.5534 3.76202C9.3976 3.76202 8.59957 4.05498 7.80155 4.66752C7.71899 4.72078 7.70523 4.82731 7.77403 4.90721L8.35191 5.62628L8.46198 5.75944L8.59957 5.65291C9.27376 5.13358 9.72781 4.92053 10.4708 4.92053C11.4477 4.92053 11.943 5.25343 11.943 5.90592V6.21219C11.943 6.21219 11.2551 6.34535 10.0168 6.65162C7.80155 7.19758 7.14111 7.99655 7.14111 9.03521C7.14111 10.207 8.03545 11.1924 9.82412 11.1924C10.746 11.1924 11.4614 10.9394 12.1356 10.7663L12.1769 11.1258H13.1538C13.1538 11.1258 13.2501 11.0992 13.2914 11.0726C13.3189 11.0326 13.3464 10.9927 13.3327 10.9394V5.91924L13.3464 5.90592ZM11.9843 7.41064V9.66107C11.9843 9.66107 11.3927 9.82086 11.0212 9.91407C10.7322 9.98065 10.3882 10.0605 9.97547 10.0605C8.87475 10.0605 8.55829 9.51459 8.55829 9.08847C8.55829 8.58246 8.77844 8.18298 10.347 7.81012C11.2826 7.58375 11.7366 7.46391 11.9843 7.41064Z" fill="#00205C"/>
<path d="M14.8322 11.1259H16.043V5.32005C16.043 5.32005 16.5383 5.16026 17.0749 5.0271C17.2675 4.97383 17.4739 4.9472 17.7078 4.9472C19.0562 4.9472 19.2076 5.59969 19.2076 6.07907V11.1126H20.4184C20.5147 11.1126 20.5972 11.0327 20.5972 10.9395V5.94591C20.5972 4.57435 19.6341 3.7887 17.9692 3.7887C17.584 3.7887 17.2538 3.84196 16.9648 3.92186C16.4695 4.0417 15.8779 4.21481 15.8779 4.21481L15.8366 3.85528H14.8322C14.7359 3.85528 14.6533 3.93517 14.6533 4.02839V10.9528C14.6533 11.046 14.7359 11.1259 14.8322 11.1259Z" fill="#00205C"/>
<path d="M29.4995 14.7345C27.3256 14.7345 26.2661 15.9862 26.2661 18.5563C26.2661 21.1263 27.243 22.1649 29.4444 22.1782C30.7653 22.1782 31.5909 21.7388 32.2926 20.7268C32.3476 20.6602 32.3338 20.5537 32.2651 20.5004L31.5909 19.9944L31.4395 19.8746C31.4395 19.8746 31.3707 19.9811 31.3432 20.0077L31.3019 20.061C30.9992 20.4605 30.7103 20.9665 29.4995 21.0064C28.385 21.0064 27.7108 20.6336 27.642 18.8625H32.5402C32.6365 18.8625 32.7191 18.7826 32.7191 18.6894V18.3166C32.7191 15.9197 31.6321 14.6946 29.4995 14.6946V14.7345ZM27.6558 17.7839C27.7658 16.4656 28.3437 15.8664 29.4995 15.8664C30.6552 15.8664 31.2331 16.4656 31.357 17.7839H27.6558Z" fill="#00205C"/>
<path d="M24.9863 12.8969H23.7893V15.2805C23.2527 14.921 22.551 14.7212 21.7805 14.7212C20.5146 14.7212 18.8223 15.1074 18.8223 18.4364C18.8223 21.7655 20.4733 22.1383 21.7117 22.1383C22.6473 22.1383 23.0738 21.9519 23.9406 21.7122L23.9819 22.0717H24.9726C24.9726 22.0717 25.0689 22.0584 25.0964 22.0185C25.1239 21.9785 25.1514 21.9386 25.1377 21.8853V13.0567C25.1377 12.9635 25.0551 12.8836 24.9588 12.8836L24.9863 12.8969ZM23.8168 20.607C23.8168 20.607 22.8537 20.9931 21.9731 20.9931C21.0925 20.9931 20.2394 20.7934 20.2394 18.4364C20.2394 16.0795 21.0787 15.8664 21.9456 15.8664C22.7573 15.8664 23.4178 16.1194 23.8306 16.5855V20.607H23.8168Z" fill="#00205C"/>
<path d="M0 2.11085V10.9394C0 10.9394 0.013759 11.0327 0.0412771 11.0726C0.0687952 11.1126 0.123831 11.1259 0.165108 11.1259H1.16952L1.2108 10.7663C2.07761 11.006 2.50414 11.1924 3.43976 11.1924C4.67807 11.1924 6.32916 10.8063 6.32916 7.49057C6.32916 4.17485 4.6368 3.77537 3.37096 3.77537C2.60046 3.77537 1.89875 3.97511 1.36214 4.33465V1.93774H0.178867C0.0825542 1.93774 0 2.01764 0 2.11085ZM1.34839 5.62631C1.7474 5.16025 2.40783 4.90724 3.23337 4.90724C4.10019 4.90724 4.93949 5.10698 4.93949 7.47725C4.93949 9.84752 4.08643 10.0339 3.20586 10.0339C2.32528 10.0339 1.36214 9.64778 1.36214 9.64778V5.62631H1.34839Z" fill="#00205C"/>
<path d="M35.2782 22.0983H34.0812C33.9849 22.0983 33.9023 22.0184 33.9023 21.9252V12.9235H35.0994C35.1957 12.9235 35.2782 13.0034 35.2782 13.0966V22.0983Z" fill="#00205C"/>
</svg>
